Coordinates
version=1
nRows=5
nColumns=107
inDegrees=yes

Units are S.I. units (second, meters, Newtons, ...)
If the header above contains a line with 'inDegrees', this indicates whether rotational values are in degrees (yes) or radians (no).

endheader
time	sternoclavicular_r2	sternoclavicular_r3	unrotscap_r3	unrotscap_r2	acromioclavicular_r2	acromioclavicular_r3	acromioclavicular_r1	unrothum_r1	unrothum_r3	unrothum_r2	elv_angle	shoulder_elv	shoulder1_r2	shoulder_rot	elbow_flexion	pro_sup	deviation	flexion	proximal_distal_r1	proximal_distal_r3	cmc_flexion	cmc_abduction	mp_flexion	ip_flexion	mcp2_flexion	mcp2_abduction	pm2_flexion	md2_flexion	mcp3_flexion	mcp3_abduction	pm3_flexion	md3_flexion	mcp4_flexion	mcp4_abduction	pm4_flexion	md4_flexion	mcp5_flexion	mcp5_abduction	pm5_flexion	md5_flexion	bicpt_tx	bicpt_ty	bicpt_tz	bicpt2_tx	bicpt2_ty	bicpt2_tz	ptpt_tx	ptpt_ty	ptpt_tz	FCUpt_tx	FCUpt_ty	FCUpt_tz	EDCpt_tx	EDCpt_ty	EDCpt_tz	APLpt_tx	APLpt_ty	APLpt_tz	FPLpt_tx	FPLpt_ty	FPLpt_tz	FPLpt2_tx	FPLpt2_ty	FPLpt2_tz	PEC1pt2_tx	PEC1pt2_ty	PEC1pt2_tz	PEC1pt3_tx	PEC1pt3_ty	PEC1pt3_tz	PEC2pt2_tx	PEC2pt2_ty	PEC2pt2_tz	PEC2pt3_tx	PEC2pt3_ty	PEC2pt3_tz	PEC3pt2_tx	PEC3pt2_ty	PEC3pt2_tz	PEC3pt3_tx	PEC3pt3_ty	PEC3pt3_tz	DELT2pt2a_tx	DELT2pt2a_ty	DELT2pt2a_tz	DELT2pt2_tx	DELT2pt2_ty	DELT2pt2_tz	LAT1pt2_tx	LAT1pt2_ty	LAT1pt2_tz	LAT1pt3_tx	LAT1pt3_ty	LAT1pt3_tz	LAT2pt2_tx	LAT2pt2_ty	LAT2pt2_tz	LAT2pt3_tx	LAT2pt3_ty	LAT2pt3_tz	LAT3pt2_tx	LAT3pt2_ty	LAT3pt2_tz	LAT3pt3_tx	LAT3pt3_ty	LAT3pt3_tz
      0.56666667	     -0.32395685	      0.13721283	     -0.13721283	      0.32395685	     -0.06559467	      0.53011307	      0.23828217	     -0.23828217	     -0.53011307	      0.06559467	     98.16882869	     76.69966347	     -1.71336928	    -20.23613298	     29.04313578	     17.05926609	     -0.00107647	     -0.94003418	     -0.00146145	     -0.47001709	     -7.11952170	     -8.36777611	    -37.95976790	    -54.55658916	     30.63152496	     13.61716609	     10.55936129	    -23.39023394	     48.11917503	      6.14887080	     85.54825373	     70.40972096	     38.57698738	     -5.15730483	    100.53655303	     46.13477136	     19.54905693	    -13.47680719	     -8.03350768	      5.04004663	      0.00086066	     -0.03092879	     -0.00483618	      0.01592956	     -0.01808971	     -0.00955005	      0.00628951	     -0.06571505	     -0.00142422	      0.00555181	     -0.18389757	     -0.00002540	     -0.00204711	      0.00052825	      0.00016850	      0.00022176	      0.00008870	      0.00044352	      0.00028385	      0.00085156	      0.00047900	     -0.00068623	      0.00020615	      0.00024738	      0.00251405	      0.00882047	      0.00613598	     -0.00822392	      0.01985671	     -0.01883404	      0.00251405	      0.00882047	      0.00613598	      0.00055394	      0.01840793	     -0.00967269	      0.00396805	      0.00490495	      0.01601660	      0.00000000	      0.00786827	      0.00000000	     -0.00720125	     -0.03327916	     -0.00648824	      0.01391218	     -0.00043920	     -0.00338055	     -0.00089483	      0.01499906	     -0.00613598	      0.00247144	      0.02164637	     -0.01789660	     -0.00600815	      0.01299634	     -0.00549681	     -0.01252762	      0.02744146	     -0.03072250	     -0.02352125	      0.01453034	     -0.00737170	     -0.01559561	      0.03170255	     -0.03839248
      0.60000000	     -0.32382767	      0.13715812	     -0.13715812	      0.32382767	     -0.06556852	      0.52990167	      0.23818716	     -0.23818716	     -0.52990167	      0.06556852	     98.20255615	     76.66907817	     -1.71395794	    -20.41837544	     29.05093463	     17.34256356	     -0.00027538	     -0.93444887	     -0.00037349	     -0.46722443	     -7.00418308	     -8.55518774	    -38.02900020	    -54.54075454	     30.56848418	     13.60177230	     10.57196376	    -23.01256173	     48.05085968	      6.14671355	     85.54221508	     70.14426878	     38.52112717	     -5.01575094	    100.66639479	     46.39789925	     19.58227748	    -13.47751957	     -8.10115543	      5.03825426	      0.00086091	     -0.03092968	     -0.00483632	      0.01594486	     -0.01809183	     -0.00952886	      0.00626858	     -0.06572859	     -0.00144704	      0.00557834	     -0.18389351	     -0.00003228	     -0.00208110	      0.00053779	      0.00016996	      0.00022482	      0.00008993	      0.00044963	      0.00028776	      0.00086329	      0.00048560	     -0.00066544	      0.00020236	      0.00024283	      0.00251304	      0.00881695	      0.00613353	     -0.00822064	      0.01984879	     -0.01882653	      0.00251304	      0.00881695	      0.00613353	      0.00055372	      0.01840059	     -0.00966883	      0.00396690	      0.00490299	      0.01601381	      0.00000000	      0.00786195	      0.00000000	     -0.00719838	     -0.03326589	     -0.00648299	      0.01401651	     -0.00044482	     -0.00344479	     -0.00089447	      0.01499308	     -0.00613353	      0.00247045	      0.02163774	     -0.01788947	     -0.00600575	      0.01299116	     -0.00549462	     -0.01252263	      0.02743052	     -0.03071025	     -0.02351187	      0.01452454	     -0.00736876	     -0.01558939	      0.03168991	     -0.03837717
      0.63333333	     -0.32156878	      0.13620136	     -0.13620136	      0.32156878	     -0.06511114	      0.52620530	      0.23652566	     -0.23652566	     -0.52620530	      0.06511114	     98.70219828	     76.13426660	     -1.72267834	    -23.08750205	     29.12488237	     19.95652796	     -0.00829627	     -0.92630071	     -0.01131553	     -0.46315035	     -7.06452148	     -8.38883449	    -37.96061882	    -54.32868931	     30.67775528	     13.62521009	     10.53225486	    -23.31197330	     48.03547750	      6.14620768	     85.55950107	     70.17154705	     38.50641123	     -5.17823470	    100.50065083	     46.50568175	     19.65927948	    -13.47309281	     -8.10494718	      5.04043751	      0.00086336	     -0.03093816	     -0.00483769	      0.01607744	     -0.01811192	     -0.00932807	      0.00607544	     -0.06585348	     -0.00165761	      0.00582428	     -0.18385498	     -0.00009287	     -0.00239478	      0.00062689	      0.00018145	      0.00022918	      0.00009167	      0.00045836	      0.00029335	      0.00088005	      0.00049503	     -0.00067598	      0.00020433	      0.00024519	      0.00249551	      0.00875545	      0.00609075	     -0.00816329	      0.01971033	     -0.01869521	      0.00249551	      0.00875545	      0.00609075	      0.00054986	      0.01827224	     -0.00960139	      0.00394670	      0.00486879	      0.01596461	      0.00000000	      0.00775188	      0.00000000	     -0.00714817	     -0.03303384	     -0.00639162	      0.01549417	     -0.00052860	     -0.00444349	     -0.00088823	      0.01488849	     -0.00609075	      0.00245322	      0.02148680	     -0.01776468	     -0.00596386	      0.01290054	     -0.00545629	     -0.01243527	      0.02723917	     -0.03049603	     -0.02334786	      0.01442323	     -0.00731736	     -0.01548065	      0.03146886	     -0.03810946
      0.66666667	     -0.32132063	      0.13609625	     -0.13609625	      0.32132063	     -0.06506089	      0.52579924	      0.23634314	     -0.23634314	     -0.52579924	      0.06506089	     98.78915077	     76.07551571	     -1.72419595	    -23.45040793	     29.10350430	     20.40439937	     -0.00752028	     -0.92093783	     -0.01025149	     -0.46046892	     -6.99845211	     -8.43258390	    -38.02882014	    -54.43825841	     30.70166824	     13.61777586	     10.66068337	    -23.62009923	     48.10029467	      6.14430296	     85.48760718	     70.22093720	     38.57659593	     -5.05935949	    100.53993019	     46.63228874	     19.63544209	    -13.45828138	     -8.02202961	      5.03431619	      0.00086265	     -0.03093571	     -0.00483729	      0.01609856	     -0.01810611	     -0.00929270	      0.00604235	     -0.06587487	     -0.00169368	      0.00586663	     -0.18384818	     -0.00010273	     -0.00244852	      0.00064237	      0.00018304	      0.00023198	      0.00009279	      0.00046397	      0.00029694	      0.00089082	      0.00050108	     -0.00066441	      0.00020217	      0.00024260	      0.00249359	      0.00874869	      0.00608605	     -0.00815699	      0.01969512	     -0.01868078	      0.00249359	      0.00874869	      0.00608605	      0.00054943	      0.01825814	     -0.00959398	      0.00394448	      0.00486504	      0.01595917	      0.00000000	      0.00773984	      0.00000000	     -0.00714265	     -0.03300835	     -0.00638163	      0.01568772	     -0.00054020	     -0.00458749	     -0.00088755	      0.01487700	     -0.00608605	      0.00245132	      0.02147022	     -0.01775097	     -0.00595925	      0.01289058	     -0.00545208	     -0.01242568	      0.02721815	     -0.03047250	     -0.02332984	      0.01441210	     -0.00731171	     -0.01546870	      0.03144457	     -0.03808005
      0.70000000	     -0.32332823	      0.13694658	     -0.13694658	      0.32332823	     -0.06546739	      0.52908442	      0.23781981	     -0.23781981	     -0.52908442	      0.06546739	     98.33157113	     76.55083322	     -1.71620967	    -21.01820363	     29.02566470	     18.00749839	     -0.00035163	     -0.93028216	     -0.00047726	     -0.46514108	     -7.01242310	     -8.35776922	    -37.95964639	    -54.30556210	     30.82340874	     13.60992515	     10.61181326	    -23.52462846	     48.15214150	      6.12825164	     85.55376651	     70.35360238	     38.57002365	     -5.14177392	    100.35162766	     46.59350616	     19.69117039	    -13.45609973	     -8.08404915	      5.04647693	      0.00086008	     -0.03092678	     -0.00483586	      0.01598006	     -0.01808496	     -0.00947869	      0.00621945	     -0.06576036	     -0.00150060	      0.00564070	     -0.18388389	     -0.00004818	     -0.00216089	      0.00056025	      0.00017324	      0.00022706	      0.00009082	      0.00045412	      0.00029063	      0.00087190	      0.00049045	     -0.00066686	      0.00020263	      0.00024315	      0.00250917	      0.00880335	      0.00612407	     -0.00820796	      0.01981818	     -0.01879750	      0.00250917	      0.00880335	      0.00612407	      0.00055287	      0.01837222	     -0.00965392	      0.00396244	      0.00489543	      0.01600299	      0.00000000	      0.00783754	      0.00000000	     -0.00718728	     -0.03321458	     -0.00646274	      0.01435689	     -0.00046341	     -0.00365976	     -0.00089309	      0.01496995	     -0.00612407	      0.00246664	      0.02160436	     -0.01786188	     -0.00599649	      0.01297112	     -0.00548615	     -0.01250331	      0.02738821	     -0.03066289	     -0.02347561	      0.01450214	     -0.00735739	     -0.01556535	      0.03164104	     -0.03831798
